<svg viewBox="0 0 512 512" xmlns="http://www.w3.org/2000/svg"><circle cx="256" cy="256" fill="#f55b4b" r="256"/><path d="m437.15 159.7h24.59a8.06 8.06 0 0 1 8.06 8.06v56.83a8.06 8.06 0 0 1 -8.06 8.06h-24.59a0 0 0 0 1 0 0v-72.95a0 0 0 0 1 0 0z" fill="#27273d"/><path d="m57.47 205.52-5.8 18.48a20.59 20.59 0 0 0 19.63 26.76 25.41 25.41 0 0 1 22.78 36.85l-44.64 89.28a18.36 18.36 0 0 0 16.43 26.58h58.45a18.37 18.37 0 0 0 16.43-10.15l24-48a170.64 170.64 0 0 1 17.32-27.66h75.93a15.57 15.57 0 0 0 15-11.59c9.08-34.22 36.07-54.63 36.72-55.12 2.65-.13 112.93-.19 112.93-.19a25.55 25.55 0 0 0 25.54-25.54v-19.7zm207.12 63a19.23 19.23 0 0 1 -13.59 32.79h-16.63a19.22 19.22 0 0 1 -19-16.52 18.55 18.55 0 0 1 -.19-2.7 19.21 19.21 0 0 1 19.22-19.22h16.6a19 19 0 0 1 2.94.22 19.21 19.21 0 0 1 10.65 5.4z" fill="#32314b"/><g fill="#27273d"><circle cx="105.26" cy="305.78" r="7.11"/><circle cx="125.8" cy="305.78" r="7.11"/><circle cx="146.34" cy="305.78" r="7.11"/><circle cx="166.87" cy="305.78" r="7.11"/><circle cx="84.73" cy="343.96" r="7.11"/><circle cx="105.26" cy="343.96" r="7.11"/><circle cx="125.8" cy="343.96" r="7.11"/><circle cx="146.34" cy="343.96" r="7.11"/><circle cx="72.88" cy="362.66" r="7.11"/><circle cx="93.41" cy="362.66" r="7.11"/><circle cx="113.95" cy="362.66" r="7.11"/><circle cx="134.49" cy="362.66" r="7.11"/><circle cx="94.99" cy="325.53" r="7.11"/><circle cx="115.53" cy="325.53" r="7.11"/><circle cx="136.07" cy="325.53" r="7.11"/><circle cx="156.61" cy="325.53" r="7.11"/></g><path d="m448.21 156.76a17.12 17.12 0 0 0 -17.12-17.12h-356.5a17.13 17.13 0 0 0 -17.12 17.12v48.77h130.6v7.84a10.53 10.53 0 0 0 10.53 10.53h17.4a10.53 10.53 0 0 0 10.53-10.53v-7.84h221.7z" fill="#3e436d"/><circle cx="405.28" cy="167.25" fill="#4f4f74" r="13.55"/><circle cx="377.06" cy="167.25" fill="#4f4f74" r="9.6"/><path d="m95.92 131.91a10 10 0 0 1 10 10v63.61a0 0 0 0 1 0 0h-20a0 0 0 0 1 0 0v-63.6a10 10 0 0 1 10-10.01z" fill="#32314b"/><path d="m131.2 131.91a10 10 0 0 1 10 10v63.61a0 0 0 0 1 0 0h-20a0 0 0 0 1 0 0v-63.6a10 10 0 0 1 10-10.01z" fill="#32314b"/><path d="m166.48 131.91a10 10 0 0 1 10 10v63.61a0 0 0 0 1 0 0h-20a0 0 0 0 1 0 0v-63.6a10 10 0 0 1 10-10z" fill="#32314b"/><rect fill="#27273d" height="23.35" rx="11.67" width="88.5" x="65.86" y="380.12"/></svg>