<?xml version="1.0" encoding="UTF-8" standalone="no"?>
<!DOCTYPE svg PUBLIC "-//W3C//DTD SVG 1.1//EN" "http://www.w3.org/Graphics/SVG/1.1/DTD/svg11.dtd">
<svg xmlns="http://www.w3.org/2000/svg" version="1.1" viewBox="0.00 0.00 1076.00 366.00">
<g stroke-width="2.00" fill="none" stroke-linecap="butt">
<path stroke="#9aac96" vector-effect="non-scaling-stroke" d="
  M 769.25 139.25
  L 756.75 139.25
  A 0.50 0.50 0.0 0 0 756.25 139.75
  L 756.25 163.25
  A 0.50 0.50 0.0 0 0 756.75 163.75
  L 769.25 163.75
  Q 769.75 163.75 769.75 164.25
  L 769.75 228.75
  Q 769.75 229.25 770.25 229.25
  L 801.75 229.25
  A 0.75 0.75 0.0 0 0 802.50 228.50
  L 802.50 164.50
  A 0.75 0.75 0.0 0 1 803.25 163.75
  L 823.50 163.75
  Q 824.00 163.75 824.00 163.25
  L 824.00 139.75
  Q 824.00 139.25 823.50 139.25
  L 802.50 139.25
  Q 801.94 139.25 801.86 138.70
  C 800.87 131.85 804.42 124.96 812.13 125.14
  Q 817.11 125.26 821.53 127.54
  Q 821.98 127.77 822.27 127.35
  Q 823.14 126.07 823.64 124.57
  Q 826.84 114.81 830.31 104.99
  Q 830.49 104.49 830.00 104.28
  Q 815.20 97.97 798.69 100.98
  Q 783.12 103.83 775.26 116.06
  C 771.04 122.64 769.82 130.84 769.78 138.73
  Q 769.77 139.25 769.25 139.25"
/>
<path stroke="#529b49" vector-effect="non-scaling-stroke" d="
  M 230.83 176.89
  L 189.94 109.72
  A 2.02 2.01 74.3 0 0 188.22 108.75
  L 161.78 108.75
  Q 161.27 108.75 161.51 109.20
  Q 174.58 133.37 187.63 157.56
  Q 192.40 166.40 197.59 174.89
  Q 210.09 195.36 222.91 216.22
  A 2.18 2.18 0.0 0 0 224.76 217.25
  L 238.23 217.25
  Q 238.79 217.25 239.08 216.77
  C 251.61 195.83 264.68 174.96 276.17 153.43
  Q 287.61 131.97 299.74 109.57
  A 0.56 0.56 0.0 0 0 299.25 108.75
  L 273.47 108.75
  A 0.96 0.95 -74.4 0 0 272.65 109.22
  L 232.50 176.88
  Q 231.67 178.28 230.83 176.89"
/>
<path stroke="#9aac96" vector-effect="non-scaling-stroke" d="
  M 604.50 196.53
  C 607.88 197.30 609.69 200.85 607.27 203.77
  C 605.45 205.97 603.29 206.70 600.29 206.97
  Q 579.91 208.78 561.79 199.18
  Q 561.24 198.89 560.99 199.46
  L 551.83 220.33
  Q 551.60 220.83 552.03 221.18
  Q 554.65 223.31 557.05 224.21
  Q 581.66 233.38 607.72 229.38
  C 623.71 226.92 638.00 218.14 638.80 200.25
  C 639.43 186.33 629.22 176.90 616.30 174.20
  Q 601.64 171.14 596.25 170.52
  C 592.82 170.13 585.78 169.19 584.34 165.91
  Q 583.46 163.91 584.80 162.02
  Q 587.12 158.75 592.52 158.14
  Q 609.99 156.15 625.38 164.41
  Q 625.77 164.62 625.96 164.21
  L 635.02 143.78
  Q 635.72 142.21 634.15 141.52
  Q 614.27 132.78 591.49 134.78
  C 573.30 136.38 552.35 145.15 553.44 167.08
  C 554.29 184.12 567.44 190.59 582.41 192.68
  Q 595.72 194.53 604.50 196.53"
/>
<path stroke="#9aac96" vector-effect="non-scaling-stroke" d="
  M 383.25 218.26
  L 383.25 228.75
  Q 383.25 229.25 383.75 229.25
  L 412.99 229.25
  Q 413.47 229.25 413.47 228.77
  Q 413.58 205.34 413.46 181.90
  Q 413.39 167.91 411.81 162.05
  C 403.85 132.59 366.73 131.05 342.35 137.63
  Q 333.46 140.03 325.49 144.77
  A 1.06 1.05 -28.5 0 0 325.08 146.15
  L 335.49 167.00
  Q 335.71 167.44 336.13 167.17
  Q 346.94 160.08 359.92 159.38
  C 369.71 158.85 380.00 162.39 380.80 173.72
  Q 380.84 174.27 380.29 174.27
  C 364.20 174.14 340.52 172.09 327.92 184.01
  Q 324.78 186.98 323.55 190.00
  Q 316.44 207.36 327.94 220.91
  C 330.51 223.94 336.25 226.97 339.91 228.21
  C 352.32 232.41 367.90 232.02 378.35 223.60
  C 380.18 222.13 381.08 219.84 382.85 218.09
  Q 383.25 217.69 383.25 218.26"
/>
<path stroke="#9aac96" vector-effect="non-scaling-stroke" d="
  M 469.50 222.00
  Q 469.50 220.67 470.44 221.61
  Q 476.59 227.79 485.26 229.60
  C 504.69 233.67 523.96 226.51 534.32 209.21
  C 549.58 183.74 539.68 144.92 509.00 136.41
  C 495.11 132.56 479.35 133.85 468.67 144.25
  Q 468.05 144.85 468.05 143.99
  L 467.98 136.61
  A 0.62 0.62 0.0 0 0 467.36 135.99
  L 437.25 136.00
  Q 436.75 136.00 436.75 136.50
  L 436.75 261.75
  A 0.75 0.75 0.0 0 0 437.50 262.50
  L 469.00 262.50
  A 0.50 0.50 0.0 0 0 469.50 262.00
  L 469.50 222.00"
/>
<path stroke="#9aac96" vector-effect="non-scaling-stroke" d="
  M 712.50 218.19
  L 712.50 228.50
  A 0.75 0.75 0.0 0 0 713.25 229.25
  L 742.24 229.25
  Q 742.72 229.25 742.73 228.76
  Q 742.81 203.88 742.72 179.01
  Q 742.68 169.25 741.57 164.60
  C 737.53 147.69 726.06 138.56 709.31 135.73
  C 691.20 132.66 670.61 135.37 654.46 144.86
  Q 654.05 145.10 654.26 145.53
  L 664.90 166.80
  Q 665.14 167.28 665.60 166.99
  Q 679.15 158.14 695.50 159.82
  Q 698.75 160.16 701.75 161.51
  Q 709.56 165.03 710.03 173.72
  Q 710.06 174.27 709.50 174.27
  C 693.60 174.17 668.89 171.96 656.57 184.66
  C 648.63 192.86 648.34 207.04 653.82 216.32
  C 659.21 225.45 670.54 230.00 680.84 230.66
  C 692.44 231.40 702.85 229.32 710.57 220.42
  A 1.81 1.77 74.2 0 0 710.93 219.76
  Q 711.21 218.76 711.90 217.97
  Q 712.50 217.27 712.50 218.19"
/>
<path stroke="#9aac96" vector-effect="non-scaling-stroke" d="
  M 864.69 191.50
  Q 864.48 190.75 865.26 190.75
  L 931.71 190.75
  Q 932.10 190.75 932.15 190.36
  C 936.46 155.23 911.97 132.35 877.49 134.72
  C 848.96 136.67 828.43 159.55 832.05 188.48
  C 836.37 223.03 870.06 234.97 900.48 229.37
  Q 915.07 226.69 925.53 216.30
  Q 926.11 215.72 925.54 215.12
  L 909.38 198.23
  A 0.88 0.88 0.0 0 0 908.18 198.15
  Q 895.71 208.24 880.51 205.11
  C 872.67 203.49 866.87 199.18 864.69 191.50"
/>
<path stroke="#529b49" vector-effect="non-scaling-stroke" d="
  M 295.07 165.30
  C 287.48 179.37 279.37 193.17 271.67 207.19
  C 268.83 212.35 269.75 222.66 270.12 228.66
  A 0.62 0.62 0.0 0 0 270.74 229.25
  L 300.81 229.25
  Q 301.36 229.25 301.36 228.70
  L 301.06 155.75
  Q 301.06 154.79 300.56 155.61
  Q 297.67 160.47 295.07 165.30"
/>
<path stroke="#529b49" vector-effect="non-scaling-stroke" d="
  M 191.66 210.46
  C 181.57 192.65 171.77 174.69 161.60 156.92
  Q 161.25 156.30 161.25 157.01
  L 161.25 228.75
  Q 161.25 229.25 161.75 229.25
  L 192.24 229.25
  Q 192.72 229.25 192.72 228.77
  Q 192.80 221.59 192.73 214.42
  Q 192.71 212.32 191.66 210.46"
/>
<path stroke="#9aac96" vector-effect="non-scaling-stroke" d="
  M 357.67 208.59
  C 369.42 213.18 383.68 205.51 380.76 191.72
  Q 380.66 191.25 380.18 191.25
  Q 372.21 191.21 364.25 191.39
  Q 359.42 191.50 357.15 192.86
  Q 350.93 196.61 353.31 203.67
  Q 354.55 207.37 357.67 208.59"
/>
<path stroke="#9aac96" vector-effect="non-scaling-stroke" d="
  M 471.92 195.32
  C 477.68 205.84 492.77 207.90 501.58 199.95
  C 511.77 190.74 510.47 169.13 497.66 162.64
  C 484.40 155.92 470.72 164.51 469.10 178.71
  Q 468.01 188.19 471.92 195.32"
/>
<path stroke="#9aac96" vector-effect="non-scaling-stroke" d="
  M 681.90 201.30
  C 683.30 213.95 701.70 211.07 707.48 203.96
  Q 711.47 199.04 710.01 191.71
  Q 709.92 191.26 709.46 191.26
  Q 702.19 191.24 694.94 191.27
  C 688.35 191.29 681.04 193.64 681.90 201.30"
/>
<path stroke="#9aac96" vector-effect="non-scaling-stroke" d="
  M 901.82 172.88
  C 900.79 165.91 894.95 159.78 888.23 158.26
  C 877.58 155.85 865.72 161.01 864.25 172.97
  Q 864.19 173.50 864.72 173.50
  L 901.28 173.50
  Q 901.91 173.50 901.82 172.88"
/>
</g>
<path fill="#35582c" d="
  M 0.00 0.00
  L 1076.00 0.00
  L 1076.00 366.00
  L 0.00 366.00
  L 0.00 0.00
  Z
  M 769.25 139.25
  L 756.75 139.25
  A 0.50 0.50 0.0 0 0 756.25 139.75
  L 756.25 163.25
  A 0.50 0.50 0.0 0 0 756.75 163.75
  L 769.25 163.75
  Q 769.75 163.75 769.75 164.25
  L 769.75 228.75
  Q 769.75 229.25 770.25 229.25
  L 801.75 229.25
  A 0.75 0.75 0.0 0 0 802.50 228.50
  L 802.50 164.50
  A 0.75 0.75 0.0 0 1 803.25 163.75
  L 823.50 163.75
  Q 824.00 163.75 824.00 163.25
  L 824.00 139.75
  Q 824.00 139.25 823.50 139.25
  L 802.50 139.25
  Q 801.94 139.25 801.86 138.70
  C 800.87 131.85 804.42 124.96 812.13 125.14
  Q 817.11 125.26 821.53 127.54
  Q 821.98 127.77 822.27 127.35
  Q 823.14 126.07 823.64 124.57
  Q 826.84 114.81 830.31 104.99
  Q 830.49 104.49 830.00 104.28
  Q 815.20 97.97 798.69 100.98
  Q 783.12 103.83 775.26 116.06
  C 771.04 122.64 769.82 130.84 769.78 138.73
  Q 769.77 139.25 769.25 139.25
  Z
  M 230.83 176.89
  L 189.94 109.72
  A 2.02 2.01 74.3 0 0 188.22 108.75
  L 161.78 108.75
  Q 161.27 108.75 161.51 109.20
  Q 174.58 133.37 187.63 157.56
  Q 192.40 166.40 197.59 174.89
  Q 210.09 195.36 222.91 216.22
  A 2.18 2.18 0.0 0 0 224.76 217.25
  L 238.23 217.25
  Q 238.79 217.25 239.08 216.77
  C 251.61 195.83 264.68 174.96 276.17 153.43
  Q 287.61 131.97 299.74 109.57
  A 0.56 0.56 0.0 0 0 299.25 108.75
  L 273.47 108.75
  A 0.96 0.95 -74.4 0 0 272.65 109.22
  L 232.50 176.88
  Q 231.67 178.28 230.83 176.89
  Z
  M 604.50 196.53
  C 607.88 197.30 609.69 200.85 607.27 203.77
  C 605.45 205.97 603.29 206.70 600.29 206.97
  Q 579.91 208.78 561.79 199.18
  Q 561.24 198.89 560.99 199.46
  L 551.83 220.33
  Q 551.60 220.83 552.03 221.18
  Q 554.65 223.31 557.05 224.21
  Q 581.66 233.38 607.72 229.38
  C 623.71 226.92 638.00 218.14 638.80 200.25
  C 639.43 186.33 629.22 176.90 616.30 174.20
  Q 601.64 171.14 596.25 170.52
  C 592.82 170.13 585.78 169.19 584.34 165.91
  Q 583.46 163.91 584.80 162.02
  Q 587.12 158.75 592.52 158.14
  Q 609.99 156.15 625.38 164.41
  Q 625.77 164.62 625.96 164.21
  L 635.02 143.78
  Q 635.72 142.21 634.15 141.52
  Q 614.27 132.78 591.49 134.78
  C 573.30 136.38 552.35 145.15 553.44 167.08
  C 554.29 184.12 567.44 190.59 582.41 192.68
  Q 595.72 194.53 604.50 196.53
  Z
  M 383.25 218.26
  L 383.25 228.75
  Q 383.25 229.25 383.75 229.25
  L 412.99 229.25
  Q 413.47 229.25 413.47 228.77
  Q 413.58 205.34 413.46 181.90
  Q 413.39 167.91 411.81 162.05
  C 403.85 132.59 366.73 131.05 342.35 137.63
  Q 333.46 140.03 325.49 144.77
  A 1.06 1.05 -28.5 0 0 325.08 146.15
  L 335.49 167.00
  Q 335.71 167.44 336.13 167.17
  Q 346.94 160.08 359.92 159.38
  C 369.71 158.85 380.00 162.39 380.80 173.72
  Q 380.84 174.27 380.29 174.27
  C 364.20 174.14 340.52 172.09 327.92 184.01
  Q 324.78 186.98 323.55 190.00
  Q 316.44 207.36 327.94 220.91
  C 330.51 223.94 336.25 226.97 339.91 228.21
  C 352.32 232.41 367.90 232.02 378.35 223.60
  C 380.18 222.13 381.08 219.84 382.85 218.09
  Q 383.25 217.69 383.25 218.26
  Z
  M 469.50 222.00
  Q 469.50 220.67 470.44 221.61
  Q 476.59 227.79 485.26 229.60
  C 504.69 233.67 523.96 226.51 534.32 209.21
  C 549.58 183.74 539.68 144.92 509.00 136.41
  C 495.11 132.56 479.35 133.85 468.67 144.25
  Q 468.05 144.85 468.05 143.99
  L 467.98 136.61
  A 0.62 0.62 0.0 0 0 467.36 135.99
  L 437.25 136.00
  Q 436.75 136.00 436.75 136.50
  L 436.75 261.75
  A 0.75 0.75 0.0 0 0 437.50 262.50
  L 469.00 262.50
  A 0.50 0.50 0.0 0 0 469.50 262.00
  L 469.50 222.00
  Z
  M 712.50 218.19
  L 712.50 228.50
  A 0.75 0.75 0.0 0 0 713.25 229.25
  L 742.24 229.25
  Q 742.72 229.25 742.73 228.76
  Q 742.81 203.88 742.72 179.01
  Q 742.68 169.25 741.57 164.60
  C 737.53 147.69 726.06 138.56 709.31 135.73
  C 691.20 132.66 670.61 135.37 654.46 144.86
  Q 654.05 145.10 654.26 145.53
  L 664.90 166.80
  Q 665.14 167.28 665.60 166.99
  Q 679.15 158.14 695.50 159.82
  Q 698.75 160.16 701.75 161.51
  Q 709.56 165.03 710.03 173.72
  Q 710.06 174.27 709.50 174.27
  C 693.60 174.17 668.89 171.96 656.57 184.66
  C 648.63 192.86 648.34 207.04 653.82 216.32
  C 659.21 225.45 670.54 230.00 680.84 230.66
  C 692.44 231.40 702.85 229.32 710.57 220.42
  A 1.81 1.77 74.2 0 0 710.93 219.76
  Q 711.21 218.76 711.90 217.97
  Q 712.50 217.27 712.50 218.19
  Z
  M 864.69 191.50
  Q 864.48 190.75 865.26 190.75
  L 931.71 190.75
  Q 932.10 190.75 932.15 190.36
  C 936.46 155.23 911.97 132.35 877.49 134.72
  C 848.96 136.67 828.43 159.55 832.05 188.48
  C 836.37 223.03 870.06 234.97 900.48 229.37
  Q 915.07 226.69 925.53 216.30
  Q 926.11 215.72 925.54 215.12
  L 909.38 198.23
  A 0.88 0.88 0.0 0 0 908.18 198.15
  Q 895.71 208.24 880.51 205.11
  C 872.67 203.49 866.87 199.18 864.69 191.50
  Z
  M 295.07 165.30
  C 287.48 179.37 279.37 193.17 271.67 207.19
  C 268.83 212.35 269.75 222.66 270.12 228.66
  A 0.62 0.62 0.0 0 0 270.74 229.25
  L 300.81 229.25
  Q 301.36 229.25 301.36 228.70
  L 301.06 155.75
  Q 301.06 154.79 300.56 155.61
  Q 297.67 160.47 295.07 165.30
  Z
  M 191.66 210.46
  C 181.57 192.65 171.77 174.69 161.60 156.92
  Q 161.25 156.30 161.25 157.01
  L 161.25 228.75
  Q 161.25 229.25 161.75 229.25
  L 192.24 229.25
  Q 192.72 229.25 192.72 228.77
  Q 192.80 221.59 192.73 214.42
  Q 192.71 212.32 191.66 210.46
  Z"
/>
<path fill="#ffffff" d="
  M 769.78 138.73
  C 769.82 130.84 771.04 122.64 775.26 116.06
  Q 783.12 103.83 798.69 100.98
  Q 815.20 97.97 830.00 104.28
  Q 830.49 104.49 830.31 104.99
  Q 826.84 114.81 823.64 124.57
  Q 823.14 126.07 822.27 127.35
  Q 821.98 127.77 821.53 127.54
  Q 817.11 125.26 812.13 125.14
  C 804.42 124.96 800.87 131.85 801.86 138.70
  Q 801.94 139.25 802.50 139.25
  L 823.50 139.25
  Q 824.00 139.25 824.00 139.75
  L 824.00 163.25
  Q 824.00 163.75 823.50 163.75
  L 803.25 163.75
  A 0.75 0.75 0.0 0 0 802.50 164.50
  L 802.50 228.50
  A 0.75 0.75 0.0 0 1 801.75 229.25
  L 770.25 229.25
  Q 769.75 229.25 769.75 228.75
  L 769.75 164.25
  Q 769.75 163.75 769.25 163.75
  L 756.75 163.75
  A 0.50 0.50 0.0 0 1 756.25 163.25
  L 756.25 139.75
  A 0.50 0.50 0.0 0 1 756.75 139.25
  L 769.25 139.25
  Q 769.77 139.25 769.78 138.73
  Z"
/>
<path fill="#6edd66" d="
  M 230.83 176.89
  Q 231.67 178.28 232.50 176.88
  L 272.65 109.22
  A 0.96 0.95 -74.4 0 1 273.47 108.75
  L 299.25 108.75
  A 0.56 0.56 0.0 0 1 299.74 109.57
  Q 287.61 131.97 276.17 153.43
  C 264.68 174.96 251.61 195.83 239.08 216.77
  Q 238.79 217.25 238.23 217.25
  L 224.76 217.25
  A 2.18 2.18 0.0 0 1 222.91 216.22
  Q 210.09 195.36 197.59 174.89
  Q 192.40 166.40 187.63 157.56
  Q 174.58 133.37 161.51 109.20
  Q 161.27 108.75 161.78 108.75
  L 188.22 108.75
  A 2.02 2.01 74.3 0 1 189.94 109.72
  L 230.83 176.89
  Z"
/>
<path fill="#ffffff" d="
  M 607.27 203.77
  C 609.69 200.85 607.88 197.30 604.50 196.53
  Q 595.72 194.53 582.41 192.68
  C 567.44 190.59 554.29 184.12 553.44 167.08
  C 552.35 145.15 573.30 136.38 591.49 134.78
  Q 614.27 132.78 634.15 141.52
  Q 635.72 142.21 635.02 143.78
  L 625.96 164.21
  Q 625.77 164.62 625.38 164.41
  Q 609.99 156.15 592.52 158.14
  Q 587.12 158.75 584.80 162.02
  Q 583.46 163.91 584.34 165.91
  C 585.78 169.19 592.82 170.13 596.25 170.52
  Q 601.64 171.14 616.30 174.20
  C 629.22 176.90 639.43 186.33 638.80 200.25
  C 638.00 218.14 623.71 226.92 607.72 229.38
  Q 581.66 233.38 557.05 224.21
  Q 554.65 223.31 552.03 221.18
  Q 551.60 220.83 551.83 220.33
  L 560.99 199.46
  Q 561.24 198.89 561.79 199.18
  Q 579.91 208.78 600.29 206.97
  C 603.29 206.70 605.45 205.97 607.27 203.77
  Z"
/>
<path fill="#ffffff" d="
  M 382.85 218.09
  C 381.08 219.84 380.18 222.13 378.35 223.60
  C 367.90 232.02 352.32 232.41 339.91 228.21
  C 336.25 226.97 330.51 223.94 327.94 220.91
  Q 316.44 207.36 323.55 190.00
  Q 324.78 186.98 327.92 184.01
  C 340.52 172.09 364.20 174.14 380.29 174.27
  Q 380.84 174.27 380.80 173.72
  C 380.00 162.39 369.71 158.85 359.92 159.38
  Q 346.94 160.08 336.13 167.17
  Q 335.71 167.44 335.49 167.00
  L 325.08 146.15
  A 1.06 1.05 -28.5 0 1 325.49 144.77
  Q 333.46 140.03 342.35 137.63
  C 366.73 131.05 403.85 132.59 411.81 162.05
  Q 413.39 167.91 413.46 181.90
  Q 413.58 205.34 413.47 228.77
  Q 413.47 229.25 412.99 229.25
  L 383.75 229.25
  Q 383.25 229.25 383.25 228.75
  L 383.25 218.26
  Q 383.25 217.69 382.85 218.09
  Z
  M 357.67 208.59
  C 369.42 213.18 383.68 205.51 380.76 191.72
  Q 380.66 191.25 380.18 191.25
  Q 372.21 191.21 364.25 191.39
  Q 359.42 191.50 357.15 192.86
  Q 350.93 196.61 353.31 203.67
  Q 354.55 207.37 357.67 208.59
  Z"
/>
<path fill="#ffffff" d="
  M 469.50 222.00
  L 469.50 262.00
  A 0.50 0.50 0.0 0 1 469.00 262.50
  L 437.50 262.50
  A 0.75 0.75 0.0 0 1 436.75 261.75
  L 436.75 136.50
  Q 436.75 136.00 437.25 136.00
  L 467.36 135.99
  A 0.62 0.62 0.0 0 1 467.98 136.61
  L 468.05 143.99
  Q 468.05 144.85 468.67 144.25
  C 479.35 133.85 495.11 132.56 509.00 136.41
  C 539.68 144.92 549.58 183.74 534.32 209.21
  C 523.96 226.51 504.69 233.67 485.26 229.60
  Q 476.59 227.79 470.44 221.61
  Q 469.50 220.67 469.50 222.00
  Z
  M 471.92 195.32
  C 477.68 205.84 492.77 207.90 501.58 199.95
  C 511.77 190.74 510.47 169.13 497.66 162.64
  C 484.40 155.92 470.72 164.51 469.10 178.71
  Q 468.01 188.19 471.92 195.32
  Z"
/>
<path fill="#ffffff" d="
  M 711.90 217.97
  Q 711.21 218.76 710.93 219.76
  A 1.81 1.77 74.2 0 1 710.57 220.42
  C 702.85 229.32 692.44 231.40 680.84 230.66
  C 670.54 230.00 659.21 225.45 653.82 216.32
  C 648.34 207.04 648.63 192.86 656.57 184.66
  C 668.89 171.96 693.60 174.17 709.50 174.27
  Q 710.06 174.27 710.03 173.72
  Q 709.56 165.03 701.75 161.51
  Q 698.75 160.16 695.50 159.82
  Q 679.15 158.14 665.60 166.99
  Q 665.14 167.28 664.90 166.80
  L 654.26 145.53
  Q 654.05 145.10 654.46 144.86
  C 670.61 135.37 691.20 132.66 709.31 135.73
  C 726.06 138.56 737.53 147.69 741.57 164.60
  Q 742.68 169.25 742.72 179.01
  Q 742.81 203.88 742.73 228.76
  Q 742.72 229.25 742.24 229.25
  L 713.25 229.25
  A 0.75 0.75 0.0 0 1 712.50 228.50
  L 712.50 218.19
  Q 712.50 217.27 711.90 217.97
  Z
  M 681.90 201.30
  C 683.30 213.95 701.70 211.07 707.48 203.96
  Q 711.47 199.04 710.01 191.71
  Q 709.92 191.26 709.46 191.26
  Q 702.19 191.24 694.94 191.27
  C 688.35 191.29 681.04 193.64 681.90 201.30
  Z"
/>
<path fill="#ffffff" d="
  M 864.69 191.50
  C 866.87 199.18 872.67 203.49 880.51 205.11
  Q 895.71 208.24 908.18 198.15
  A 0.88 0.88 0.0 0 1 909.38 198.23
  L 925.54 215.12
  Q 926.11 215.72 925.53 216.30
  Q 915.07 226.69 900.48 229.37
  C 870.06 234.97 836.37 223.03 832.05 188.48
  C 828.43 159.55 848.96 136.67 877.49 134.72
  C 911.97 132.35 936.46 155.23 932.15 190.36
  Q 932.10 190.75 931.71 190.75
  L 865.26 190.75
  Q 864.48 190.75 864.69 191.50
  Z
  M 901.82 172.88
  C 900.79 165.91 894.95 159.78 888.23 158.26
  C 877.58 155.85 865.72 161.01 864.25 172.97
  Q 864.19 173.50 864.72 173.50
  L 901.28 173.50
  Q 901.91 173.50 901.82 172.88
  Z"
/>
<path fill="#6edd66" d="
  M 295.07 165.30
  Q 297.67 160.47 300.56 155.61
  Q 301.06 154.79 301.06 155.75
  L 301.36 228.70
  Q 301.36 229.25 300.81 229.25
  L 270.74 229.25
  A 0.62 0.62 0.0 0 1 270.12 228.66
  C 269.75 222.66 268.83 212.35 271.67 207.19
  C 279.37 193.17 287.48 179.37 295.07 165.30
  Z"
/>
<path fill="#6edd66" d="
  M 161.60 156.92
  C 171.77 174.69 181.57 192.65 191.66 210.46
  Q 192.71 212.32 192.73 214.42
  Q 192.80 221.59 192.72 228.77
  Q 192.72 229.25 192.24 229.25
  L 161.75 229.25
  Q 161.25 229.25 161.25 228.75
  L 161.25 157.01
  Q 161.25 156.30 161.60 156.92
  Z"
/>
<path fill="#35582c" d="
  M 888.23 158.26
  C 894.95 159.78 900.79 165.91 901.82 172.88
  Q 901.91 173.50 901.28 173.50
  L 864.72 173.50
  Q 864.19 173.50 864.25 172.97
  C 865.72 161.01 877.58 155.85 888.23 158.26
  Z"
/>
<path fill="#35582c" d="
  M 471.92 195.32
  Q 468.01 188.19 469.10 178.71
  C 470.72 164.51 484.40 155.92 497.66 162.64
  C 510.47 169.13 511.77 190.74 501.58 199.95
  C 492.77 207.90 477.68 205.84 471.92 195.32
  Z"
/>
<path fill="#35582c" d="
  M 357.67 208.59
  Q 354.55 207.37 353.31 203.67
  Q 350.93 196.61 357.15 192.86
  Q 359.42 191.50 364.25 191.39
  Q 372.21 191.21 380.18 191.25
  Q 380.66 191.25 380.76 191.72
  C 383.68 205.51 369.42 213.18 357.67 208.59
  Z"
/>
<path fill="#35582c" d="
  M 707.48 203.96
  C 701.70 211.07 683.30 213.95 681.90 201.30
  C 681.04 193.64 688.35 191.29 694.94 191.27
  Q 702.19 191.24 709.46 191.26
  Q 709.92 191.26 710.01 191.71
  Q 711.47 199.04 707.48 203.96
  Z"
/>
</svg>
