<?xml version="1.0" encoding="UTF-8" standalone="no"?>
<!DOCTYPE svg PUBLIC "-//W3C//DTD SVG 1.1//EN" "http://www.w3.org/Graphics/SVG/1.1/DTD/svg11.dtd">
<svg xmlns="http://www.w3.org/2000/svg" version="1.1" viewBox="0.00 0.00 172.00 164.00">
<g stroke-width="2.00" fill="none" stroke-linecap="butt">
<path stroke="#529b49" vector-effect="non-scaling-stroke" d="
  M 84.87 88.96
  L 43.94 21.72
  A 2.02 2.01 74.3 0 0 42.22 20.75
  L 15.77 20.75
  Q 15.27 20.75 15.51 21.19
  Q 28.58 45.36 41.63 69.56
  Q 46.40 78.41 51.59 86.90
  Q 63.73 106.78 76.91 128.21
  Q 77.55 129.25 78.77 129.25
  L 92.25 129.25
  Q 92.76 129.25 93.03 128.81
  C 105.85 107.50 119.11 86.20 130.80 64.26
  Q 141.69 43.82 153.62 21.78
  A 0.70 0.70 0.0 0 0 153.01 20.75
  L 127.47 20.75
  A 0.96 0.95 -74.4 0 0 126.65 21.22
  L 86.46 88.95
  Q 85.67 90.28 84.87 88.96"
/>
<path stroke="#529b49" vector-effect="non-scaling-stroke" d="
  M 148.92 77.69
  Q 137.12 98.73 125.47 119.87
  Q 124.17 122.23 124.01 127.53
  Q 123.83 134.02 124.06 140.81
  A 0.45 0.45 0.0 0 0 124.51 141.25
  L 154.81 141.25
  Q 155.36 141.25 155.36 140.69
  L 155.06 67.75
  A 0.32 0.32 0.0 0 0 154.46 67.60
  Q 153.06 70.31 148.92 77.69"
/>
<path stroke="#529b49" vector-effect="non-scaling-stroke" d="
  M 45.66 122.47
  C 35.54 104.58 25.53 86.61 15.54 68.66
  A 0.16 0.15 -59.8 0 0 15.25 68.74
  L 15.25 140.75
  Q 15.25 141.25 15.75 141.25
  L 46.24 141.25
  Q 46.72 141.25 46.72 140.77
  Q 46.81 133.58 46.73 126.42
  Q 46.71 124.31 45.66 122.47"
/>
</g>
<path fill="#35582c" d="
  M 0.00 0.00
  L 172.00 0.00
  L 172.00 164.00
  L 0.00 164.00
  L 0.00 0.00
  Z
  M 84.87 88.96
  L 43.94 21.72
  A 2.02 2.01 74.3 0 0 42.22 20.75
  L 15.77 20.75
  Q 15.27 20.75 15.51 21.19
  Q 28.58 45.36 41.63 69.56
  Q 46.40 78.41 51.59 86.90
  Q 63.73 106.78 76.91 128.21
  Q 77.55 129.25 78.77 129.25
  L 92.25 129.25
  Q 92.76 129.25 93.03 128.81
  C 105.85 107.50 119.11 86.20 130.80 64.26
  Q 141.69 43.82 153.62 21.78
  A 0.70 0.70 0.0 0 0 153.01 20.75
  L 127.47 20.75
  A 0.96 0.95 -74.4 0 0 126.65 21.22
  L 86.46 88.95
  Q 85.67 90.28 84.87 88.96
  Z
  M 148.92 77.69
  Q 137.12 98.73 125.47 119.87
  Q 124.17 122.23 124.01 127.53
  Q 123.83 134.02 124.06 140.81
  A 0.45 0.45 0.0 0 0 124.51 141.25
  L 154.81 141.25
  Q 155.36 141.25 155.36 140.69
  L 155.06 67.75
  A 0.32 0.32 0.0 0 0 154.46 67.60
  Q 153.06 70.31 148.92 77.69
  Z
  M 45.66 122.47
  C 35.54 104.58 25.53 86.61 15.54 68.66
  A 0.16 0.15 -59.8 0 0 15.25 68.74
  L 15.25 140.75
  Q 15.25 141.25 15.75 141.25
  L 46.24 141.25
  Q 46.72 141.25 46.72 140.77
  Q 46.81 133.58 46.73 126.42
  Q 46.71 124.31 45.66 122.47
  Z"
/>
<path fill="#6edd66" d="
  M 84.87 88.96
  Q 85.67 90.28 86.46 88.95
  L 126.65 21.22
  A 0.96 0.95 -74.4 0 1 127.47 20.75
  L 153.01 20.75
  A 0.70 0.70 0.0 0 1 153.62 21.78
  Q 141.69 43.82 130.80 64.26
  C 119.11 86.20 105.85 107.50 93.03 128.81
  Q 92.76 129.25 92.25 129.25
  L 78.77 129.25
  Q 77.55 129.25 76.91 128.21
  Q 63.73 106.78 51.59 86.90
  Q 46.40 78.41 41.63 69.56
  Q 28.58 45.36 15.51 21.19
  Q 15.27 20.75 15.77 20.75
  L 42.22 20.75
  A 2.02 2.01 74.3 0 1 43.94 21.72
  L 84.87 88.96
  Z"
/>
<path fill="#6edd66" d="
  M 148.92 77.69
  Q 153.06 70.31 154.46 67.60
  A 0.32 0.32 0.0 0 1 155.06 67.75
  L 155.36 140.69
  Q 155.36 141.25 154.81 141.25
  L 124.51 141.25
  A 0.45 0.45 0.0 0 1 124.06 140.81
  Q 123.83 134.02 124.01 127.53
  Q 124.17 122.23 125.47 119.87
  Q 137.12 98.73 148.92 77.69
  Z"
/>
<path fill="#6edd66" d="
  M 15.54 68.66
  C 25.53 86.61 35.54 104.58 45.66 122.47
  Q 46.71 124.31 46.73 126.42
  Q 46.81 133.58 46.72 140.77
  Q 46.72 141.25 46.24 141.25
  L 15.75 141.25
  Q 15.25 141.25 15.25 140.75
  L 15.25 68.74
  A 0.16 0.15 -59.8 0 1 15.54 68.66
  Z"
/>
</svg>
