<svg viewBox="0 0 512 512" xmlns="http://www.w3.org/2000/svg"><circle cx="256" cy="256" fill="#f7bb38" r="256"/><path d="m492.74 303.27v4.18a12.61 12.61 0 0 1 -12.61 12.61h-447.62a12.61 12.61 0 0 1 -12.61-12.61v-4.18a12.61 12.61 0 0 1 12.61-12.61h1.6v-36.66a11.22 11.22 0 0 1 10.56-11.22l58.76-3.54 18-32.41a58.25 58.25 0 0 1 50.91-30h29.26l3.4-16.55a7 7 0 0 1 6.89-5.62h10.25a7 7 0 0 1 6.89 5.62l3.43 16.62h35.71a27.73 27.73 0 0 1 19 7.58l58 54.79 124 7.64a10.54 10.54 0 0 1 9.9 10.52v33.23h1a12.61 12.61 0 0 1 12.67 12.61z" fill="#366fca"/><path d="m345.21 239.27c1.64 20.89-8.08 37.7-26.48 51.39l-5.65 12.91h-137.46l-20.54-23.83-29.49-16.41c-20-6.71-22.16-24.06-22.16-24.06l18-32.41a58.25 58.25 0 0 1 50.91-30h29.26l3.4-16.58a7 7 0 0 1 6.89-5.62h10.25a7 7 0 0 1 6.89 5.62l3.43 16.62h35.71a27.73 27.73 0 0 1 19 7.58z" fill="#fff"/><path d="m480.13 290.65h-64.36a56.75 56.75 0 0 0 -97 0h-144.66a56.75 56.75 0 0 0 -97.05 0h-44.55a12.62 12.62 0 0 0 -12.61 12.61v4.19a12.62 12.62 0 0 0 12.61 12.61h447.62a12.61 12.61 0 0 0 12.6-12.61v-4.19a12.61 12.61 0 0 0 -12.6-12.61z" fill="#c6c6c6"/><path d="m492.74 303.26v4.19a12.62 12.62 0 0 1 -12.61 12.61h-447.62a12.62 12.62 0 0 1 -12.61-12.61v-4.19a11.91 11.91 0 0 1 .24-2.4 12.6 12.6 0 0 0 12.37 10.2h447.62a12.6 12.6 0 0 0 12.37-10.2 11.91 11.91 0 0 1 .24 2.4z" fill="#aaa"/><path d="m169.89 320.06h-88.62a44.31 44.31 0 1 1 88.62 0z" fill="#4f4f74"/><circle cx="125.58" cy="320.06" fill="#27273d" r="35.35"/><circle cx="125.58" cy="320.06" fill="#fff" r="16.49"/><path d="m411.56 320.06h-88.62a44.31 44.31 0 1 1 88.62 0z" fill="#4f4f74"/><circle cx="367.25" cy="320.06" fill="#27273d" r="35.35"/><circle cx="367.25" cy="320.06" fill="#fff" r="16.49"/><path d="m162.33 189.18h46.92a3.27 3.27 0 0 1 3.27 3.26v44.48a3.27 3.27 0 0 1 -3.27 3.26h-81.64a4.75 4.75 0 0 1 -4.06-7.22l20.45-33.52a21.43 21.43 0 0 1 18.33-10.26z" fill="#4f4f74"/><path d="m175.62 189.18a21.43 21.43 0 0 0 -18.31 10.26l-20.47 33.56a4.74 4.74 0 0 0 4.06 7.22h-13.29a4.75 4.75 0 0 1 -4.06-7.22l20.45-33.56a21.43 21.43 0 0 1 18.31-10.26z" fill="#3e436d"/><path d="m314.39 240.18h-81.65a3.26 3.26 0 0 1 -3.27-3.26v-44.48a3.26 3.26 0 0 1 3.27-3.26h33.39a29.3 29.3 0 0 1 21.79 9.71l30 33.37a4.74 4.74 0 0 1 -3.53 7.92z" fill="#4f4f74"/><path d="m243.72 240.18h-11a3.26 3.26 0 0 1 -3.27-3.26v-44.47a3.26 3.26 0 0 1 3.27-3.27h11a3.26 3.26 0 0 0 -3.27 3.27v44.47a3.26 3.26 0 0 0 3.27 3.26z" fill="#3e436d"/><path d="m457 263.25h22.15a0 0 0 0 1 0 0v16.49a0 0 0 0 1 0 0h-22.15a8.25 8.25 0 0 1 -8.25-8.25 8.25 8.25 0 0 1 8.25-8.24z" fill="#e88032"/><circle cx="456.77" cy="271.49" fill="#fff" r="4.58"/><rect fill="#4f4f74" height="9.57" rx="4.79" width="21.96" x="229.47" y="248.48"/><rect fill="#4f4f74" height="9.57" rx="4.79" width="21.96" x="125.58" y="248.48"/><circle cx="283.6" cy="210.6" fill="#696993" r="5.34"/><circle cx="275.62" cy="202.85" fill="#696993" r="3.78"/><circle cx="199.84" cy="210.6" fill="#696993" r="5.34"/><circle cx="191.85" cy="202.85" fill="#696993" r="3.78"/><g fill="#366fca"><path d="m189.53 282.27v3.32h-10.33v-3.32h2.49v-13h-2.49v-3.27h10.33a8.28 8.28 0 0 1 5.57 1.69 5.71 5.71 0 0 1 2 4.55 6.37 6.37 0 0 1 -.69 3 5.24 5.24 0 0 1 -1.77 2 6.67 6.67 0 0 1 -2.47 1 19.57 19.57 0 0 1 -3.47.26h-1.88v3.8zm-2.74-7.07h.77c1.74 0 2.87-.29 3.37-.85a3.38 3.38 0 0 0 .23-4 2.13 2.13 0 0 0 -1.19-.93 9.66 9.66 0 0 0 -2.22-.18h-1z"/><path d="m209.91 265.67a10.78 10.78 0 0 1 8 2.93 10.23 10.23 0 0 1 0 14.3 10.79 10.79 0 0 1 -8 2.93c-3.5 0-6.2-1-8.08-3a10 10 0 0 1 -2.82-7.07 9.8 9.8 0 0 1 2.9-7.14 10.72 10.72 0 0 1 8-2.95zm0 3.58a5 5 0 0 0 -3.83 1.69 7.08 7.08 0 0 0 -1.57 5 6.71 6.71 0 0 0 1.55 4.63 5 5 0 0 0 3.85 1.73 5 5 0 0 0 3.83-1.7 8.14 8.14 0 0 0 .08-9.53 4.88 4.88 0 0 0 -3.91-1.82z"/><path d="m223.05 285.59v-3.32h2.8v-13h-2.8v-3.27h10.77v3.31h-2.82v13h5.79v-6.06h3.82v9.38z"/><path d="m241.53 285.59v-3.32h3v-13h-3v-3.27h11.08v3.31h-3v13h3v3.32z"/><path d="m270.85 266h3.31v6.91h-3.31c-.94-2.48-2.58-3.72-4.9-3.72a5.1 5.1 0 0 0 -4.34 1.95 7.57 7.57 0 0 0 -1.48 4.7 6.74 6.74 0 0 0 1.56 4.63 5.23 5.23 0 0 0 7.42.43 6.73 6.73 0 0 0 2-3.72l3.89 1.82q-2.19 6.83-9.68 6.83-5.28 0-8-2.85a10.08 10.08 0 0 1 -2.68-7.2 10.35 10.35 0 0 1 1.39-5.43 8.93 8.93 0 0 1 3.76-3.5 11.37 11.37 0 0 1 5.18-1.18 9.33 9.33 0 0 1 5.88 1.83z"/><path d="m276.71 285.59v-3.32h2.35v-13h-2.35v-3.27h17.29v6.22h-3.75v-2.91h-6.07v4.53h4.9v3.31h-4.9v5.14h6.07v-2.93h3.75v6.25z"/></g><path d="m210.59 151.87h12.24a10.75 10.75 0 0 1 10.75 10.75v14.28a0 0 0 0 1 0 0h-33.74a0 0 0 0 1 0 0v-14.28a10.75 10.75 0 0 1 10.75-10.75z" fill="#db1b1b"/><path d="m233.58 172.4v4.5h-33.74v-14.28a10.75 10.75 0 0 1 7.09-10.11 10.66 10.66 0 0 0 -1.59 5.61 14.28 14.28 0 0 0 14.28 14.28z" fill="#bc1d1d"/><circle cx="222.58" cy="161.04" fill="#e24242" r="5.87"/><path d="m34.1 257.29h17.19a7.56 7.56 0 0 1 7.56 7.56v3.34a7.56 7.56 0 0 1 -7.56 7.56h-17.19a0 0 0 0 1 0 0v-18.46a0 0 0 0 1 0 0z" fill="#fc715a"/></svg>