<svg viewBox="0 0 512 512" xmlns="http://www.w3.org/2000/svg"><circle cx="256" cy="256" fill="#f55b4b" r="256"/><path d="m175.8 39h160.4a43.79 43.79 0 0 1 43.8 43.79v99.72a0 0 0 0 1 0 0h-248a0 0 0 0 1 0 0v-99.72a43.79 43.79 0 0 1 43.8-43.79z" fill="#7cc8fb"/><path d="m380 151.52v30.53h-248v-99.72a43.8 43.8 0 0 1 36.7-43.22 43.25 43.25 0 0 0 -1.88 12.69v36.69a63 63 0 0 0 63 63z" fill="#41c0e3"/><path d="m132 182.52h248a0 0 0 0 1 0 0v237.48a43.79 43.79 0 0 1 -43.79 43.79h-160.41a43.79 43.79 0 0 1 -43.8-43.79v-237.48a0 0 0 0 1 0 0z" fill="#3e436d"/><path d="m245.23 219.72a72.06 72.06 0 0 0 -72.07 72.06v165.37a45.49 45.49 0 0 0 .48 6.55 43.79 43.79 0 0 1 -41.64-43.7v-237.48h248v37.2z" fill="#27273d"/><rect fill="#32314b" height="118.19" rx="13.63" width="111.86" x="200.07" y="301.24"/><circle cx="345.07" cy="110.37" fill="#a0daf9" r="17.04"/><circle cx="345.07" cy="74.87" fill="#a0daf9" r="12.07"/><g fill="#fff"><path d="m166.78 237.84v6.29h-19.63v-6.29h4.74v-24.66h-4.74v-6.29h19.63q6.85 0 10.58 3.21a10.82 10.82 0 0 1 3.74 8.65 12.07 12.07 0 0 1 -1.31 5.63 10.13 10.13 0 0 1 -3.36 3.88 12.53 12.53 0 0 1 -4.69 1.85 36.65 36.65 0 0 1 -6.6.5h-3.56v7.23zm-5.2-13.44h1.42q5 0 6.41-1.62a6.48 6.48 0 0 0 .44-7.5 4.1 4.1 0 0 0 -2.27-1.77 18.88 18.88 0 0 0 -4.21-.33h-1.82z"/><path d="m205.49 206.3q9.63 0 15.17 5.57a19.44 19.44 0 0 1 0 27.16q-5.53 5.55-15.15 5.55-10 0-15.34-5.71a19 19 0 0 1 -5.36-13.43 18.59 18.59 0 0 1 5.51-13.56q5.47-5.58 15.17-5.58zm0 6.8a9.55 9.55 0 0 0 -7.27 3.21q-3 3.21-3 9.42a12.72 12.72 0 0 0 2.94 8.79 9.42 9.42 0 0 0 7.31 3.29 9.57 9.57 0 0 0 7.28-3.23q3-3.22 3-9.3a13.15 13.15 0 0 0 -2.86-8.81 9.28 9.28 0 0 0 -7.4-3.37z"/><path d="m230.44 244.13v-6.29h5.33v-24.66h-5.33v-6.29h20.46v6.29h-5.44v24.66h11v-11.52h7.26v17.81z"/><path d="m265.54 244.13v-6.29h5.65v-24.66h-5.65v-6.29h21v6.29h-5.7v24.66h5.7v6.29z"/><path d="m321.23 206.89h6.29v13.11h-6.29q-2.69-7.08-9.29-7.07c-3.64 0-6.4 1.24-8.26 3.72a14.37 14.37 0 0 0 -2.8 8.91 12.83 12.83 0 0 0 3 8.8 9.59 9.59 0 0 0 7.54 3.36 9.48 9.48 0 0 0 6.55-2.54 13 13 0 0 0 3.81-7.07l7.33 3.49q-4.17 13-18.39 13-10 0-15.14-5.41a19.13 19.13 0 0 1 -5.1-13.68 19.6 19.6 0 0 1 2.65-10.3 17.06 17.06 0 0 1 7.13-6.66 21.75 21.75 0 0 1 9.84-2.23 17.71 17.71 0 0 1 11.17 3.48z"/><path d="m332.37 244.13v-6.29h4.47v-24.66h-4.47v-6.29h32.82v11.8h-7.12v-5.51h-11.54v8.59h9.32v6.29h-9.32v9.78h11.54v-5.57h7.12v11.86z"/></g></svg>