<svg viewBox="0 0 512 512" xmlns="http://www.w3.org/2000/svg"><circle cx="256" cy="256" fill="#27273d" r="256"/><path d="m394.82 472.13c-40.82 23.96-88.11 39.87-138.82 39.87s-98-15.9-138.87-39.94c8.58-34.48 9.18-68.46 30.58-98.1 13.61-18.88 26.61-31.43 47.17-39.91 0 0 12.94-8.19 19.15-10.05 10.59 10.55 45.92 31.1 45.92 31.1l53-26.56c13.66 6.19 29.89 20.16 40.17 31 29.11 30.33 36.35 72.54 41.7 112.59z" fill="#9e4830"/><path d="m270.65 511.61q-7.31.39-14.7.39c-50.86 0-98-15.9-138.87-39.94 8.58-34.48 9.18-68.46 30.58-98.1 13.61-18.88 26.61-31.43 47.17-39.91 0 0 12.94-8.19 19.15-10.05a99.34 99.34 0 0 0 11.57 9.25l-1.29.8c-20.57 8.48-33.56 21-47.18 39.91-10.31 14.29-15.91 30.08-19.91 46.47a65.91 65.91 0 0 0 43.59 78.33 274.5 274.5 0 0 0 69.89 12.85z" fill="#843a29"/><path d="m229.42 445.45v-109.83h-8.79v109.83a8.7 8.7 0 1 0 8.79 0z" fill="#fff"/><path d="m296.13 445.45v-109.83h-8.79v109.83a8.7 8.7 0 1 0 8.79 0z" fill="#fff"/><path d="m349.62 145.39v61.49c0 45.88-36.51 60.57-63.12 83.9a41 41 0 0 1 -54.57 0c-26.61-23.33-63.12-38-63.12-83.9v-61.49c0-2.08.07-4.15.21-6.19 2.91-42.24 35.34-75.8 75.47-77.52 1.08-.06 2.19-.08 3.28-.08h22.89c42.63 0 77.36 35.85 78.89 80.68.05 1.03.07 2.07.07 3.11z" fill="#fcc8bc"/><path d="m204.89 206.89v-61.5c0-43.91 31.83-79.95 72.36-83.49-2.17-.21-4.37-.3-6.6-.3h-22.88c-43.61 0-79 37.52-79 83.79v30.44a18.1 18.1 0 0 0 0 36.19h.23c2.62 41.87 37.34 56.34 62.94 78.77a40.81 40.81 0 0 0 45.31 6.21 42.44 42.44 0 0 1 -9.25-6.18c-26.61-23.36-63.11-38.06-63.11-83.93z" fill="#fab3a7"/><circle cx="349.62" cy="193.93" fill="#fcc8bc" r="18.09"/><path d="m169.33 186.73a7.2 7.2 0 1 0 0 14.39z" fill="#f58d89"/><path d="m349.62 201.12a7.2 7.2 0 1 0 0-14.39z" fill="#fab3a7"/><ellipse cx="214.07" cy="191.74" fill="#27273d" rx="7.56" ry="10.88"/><ellipse cx="301.94" cy="191.74" fill="#27273d" rx="7.56" ry="10.88"/><path d="m227.81 187.08a3.36 3.36 0 0 1 -1.66-.44c-12.53-7.16-23.92-.15-24-.08a3.35 3.35 0 1 1 -3.58-5.67c.6-.38 14.94-9.22 30.94-.08a3.36 3.36 0 0 1 -1.67 6.27z" fill="#27273d"/><path d="m315.68 187.08a3.33 3.33 0 0 1 -1.66-.44 24.36 24.36 0 0 0 -24-.07 3.35 3.35 0 0 1 -3.57-5.68c.61-.38 15-9.22 31-.08a3.36 3.36 0 0 1 -1.67 6.27z" fill="#27273d"/><path d="m349.44 212h-51a52.87 52.87 0 0 1 -18.69-3.28c-4.35-1.64-11.07-3.28-20.56-3.28s-16.22 1.64-20.57 3.28a52.87 52.87 0 0 1 -18.62 3.28h-51c-7.49 54.22 51.56 144.53 77.93 181.68a15.06 15.06 0 0 0 24.59 0c26.36-37.14 85.41-127.45 77.92-181.68z" fill="#3e436d"/><path d="m272.92 391.7c-.49.68-.95 1.35-1.41 2a15.06 15.06 0 0 1 -24.59 0c-26.37-37.16-85.41-127.48-77.92-181.7h27.4c-7.4 53.29 49.51 141.4 76.52 179.7z" fill="#32314b"/><path d="m227.67 52.84h62.41a66.56 66.56 0 0 1 66.56 66.56v10.91a0 0 0 0 1 0 0h-195.53a0 0 0 0 1 0 0v-10.9a66.56 66.56 0 0 1 66.56-66.57z" fill="#fc715a"/><path d="m356.64 119.41v10.91h-195.53v-10.91a66.58 66.58 0 0 1 46.95-63.62 66.41 66.41 0 0 0 -8.27 8.74c-13.18 16.71-1.19 41.31 20.09 41.54l135.71 1.49c.04.92 1.05 10.9 1.05 11.85z" fill="#d84c41"/><rect fill="#f55b4b" height="37.3" rx="9.61" width="216.99" x="150.38" y="117.94"/><g fill="#d84c41"><rect height="25.29" rx="4.57" width="9.15" x="160.8" y="124.08"/><rect height="25.29" rx="4.57" width="9.15" x="179.57" y="124.08"/><rect height="25.29" rx="4.57" width="9.15" x="198.34" y="124.08"/><rect height="25.29" rx="4.57" width="9.15" x="217.11" y="124.08"/><rect height="25.29" rx="4.57" width="9.15" x="235.87" y="124.08"/><rect height="25.29" rx="4.57" width="9.15" x="254.64" y="124.08"/><rect height="25.29" rx="4.57" width="9.15" x="273.41" y="124.08"/><rect height="25.29" rx="4.57" width="9.15" x="292.18" y="124.08"/><rect height="25.29" rx="4.57" width="9.15" x="310.95" y="124.08"/><rect height="25.29" rx="4.57" width="9.15" x="329.71" y="124.08"/><rect height="25.29" rx="4.57" width="9.15" x="348.48" y="124.08"/></g><path d="m238.65 208.74a117.7 117.7 0 0 0 0 36.48 2 2 0 0 1 -3.8 1.06c-4.49-11.2-8.75-24.47-8.61-34.26z" fill="#32314b"/><path d="m252.74 161.86a3.23 3.23 0 0 0 -4.33 1.45c-1.39 2.79-3.12 4.51-5.13 5.12a8.23 8.23 0 0 1 -5.78-.73h-.05c-21.14-13.64-44.94-.67-45.95-.11a3.35 3.35 0 0 0 3.26 5.86c.22-.11 21.34-11.54 39.06-.11a3.24 3.24 0 0 0 1.51.51 14.92 14.92 0 0 0 6.09 1.35 12.9 12.9 0 0 0 3.64-.52c3.82-1.12 6.9-4 9.14-8.45a3.23 3.23 0 0 0 -1.46-4.37z" fill="#27273d"/><path d="m268.55 161.86a3.24 3.24 0 0 1 4.34 1.45c1.39 2.79 3.12 4.51 5.13 5.12a8.26 8.26 0 0 0 5.78-.73h.05c21.15-13.7 44.95-.7 45.95-.15a3.35 3.35 0 1 1 -3.26 5.86c-.21-.11-21.33-11.54-39.05-.11a3.28 3.28 0 0 1 -1.51.51 14.93 14.93 0 0 1 -6.1 1.35 12.88 12.88 0 0 1 -3.63-.52c-3.83-1.12-6.9-4-9.14-8.45a3.23 3.23 0 0 1 1.44-4.33z" fill="#27273d"/><circle cx="324.04" cy="86.38" fill="#fc9081" r="9.52"/><circle cx="304.22" cy="86.38" fill="#fc9081" r="6.74"/></svg>